<?xml version="1.0" encoding="UTF-8"?>
<svg width="166px" height="106px" viewBox="0 0 166 106" version="1.1" xmlns="http://www.w3.org/2000/svg" xmlns:xlink="http://www.w3.org/1999/xlink">
    <!-- Generator: Sketch 54.1 (76490) - https://sketchapp.com -->
    <title>Apple_Pay_Mark_RGB_041619</title>
    <desc>Created with Sketch.</desc>
    <g id="Page-1" stroke="none" stroke-width="1" fill="none" fill-rule="evenodd">
        <g id="Apple_Pay_Mark_RGB_041619" fill-rule="nonzero">
            <path d="M150.69807,0 L14.82318,0 C14.25728,0 13.69038,0 13.12549,0.0033 C12.64798,0.0067 12.17158,0.012 11.69518,0.025 C10.65618,0.0531 9.60828,0.1144 8.58228,0.2988 C7.53988,0.4864 6.56988,0.7924 5.62358,1.2742 C4.69328,1.7473 3.84158,2.3661 3.10349,3.1045 C2.36508,3.8429 1.74628,4.6932 1.27328,5.6245 C0.79138,6.5708 0.48518,7.5411 0.29888,8.5843 C0.11349,9.6106 0.05178,10.6583 0.02378,11.6962 C0.01098,12.1726 0.00549,12.649 0.00238,13.1253 C-0.00092,13.6914 0.00018,14.2571 0.00018,14.8242 L0.00018,91.142 C0.00018,91.7091 -0.00092,92.27381 0.00238,92.84101 C0.00549,93.31731 0.01098,93.79371 0.02378,94.27011 C0.05178,95.3071 0.11349,96.3548 0.29888,97.3808 C0.48518,98.4244 0.79138,99.3943 1.27328,100.3407 C1.74628,101.272 2.36508,102.1234 3.10349,102.8607 C3.84158,103.6003 4.69328,104.219 5.62358,104.6909 C6.56988,105.174 7.53988,105.4801 8.58228,105.6676 C9.60828,105.8508 10.65618,105.9132 11.69518,105.9413 C12.17158,105.9521 12.64798,105.9585 13.12549,105.9607 C13.69038,105.9651 14.25728,105.9651 14.82318,105.9651 L150.69807,105.9651 C151.26297,105.9651 151.82988,105.9651 152.39466,105.9607 C152.87107,105.9585 153.34748,105.9521 153.82606,105.9413 C154.86286,105.9132 155.91056,105.8508 156.93907,105.6676 C157.98007,105.4801 158.95027,105.174 159.89667,104.6909 C160.82797,104.219 161.67717,103.6003 162.41678,102.8607 C163.15398,102.1234 163.77277,101.272 164.24698,100.3407 C164.72997,99.3943 165.03587,98.4244 165.22127,97.3808 C165.40677,96.3548 165.46697,95.3071 165.49507,94.27011 C165.50807,93.79371 165.51448,93.31731 165.51668,92.84101 C165.52107,92.27381 165.52107,91.70911 165.52107,91.142 L165.52107,14.8242 C165.52107,14.2571 165.52107,13.6914 165.51668,13.1253 C165.51448,12.649 165.50807,12.1726 165.49507,11.6962 C165.46696,10.6583 165.40677,9.6106 165.22127,8.5843 C165.03588,7.5411 164.72997,6.5708 164.24698,5.6245 C163.77277,4.6932 163.15398,3.8429 162.41678,3.1045 C161.67717,2.3661 160.82797,1.7473 159.89667,1.2742 C158.95027,0.7924 157.98007,0.4864 156.93907,0.2988 C155.91057,0.1144 154.86287,0.0531 153.82606,0.025 C153.34748,0.012 152.87107,0.0067 152.39466,0.0033 C151.82988,0 151.26297,0 150.69807,0 L150.69807,0 Z" id="XMLID_4_" fill="#000000"></path>
            <path d="M150.69807,3.532 L152.36956,3.5352 C152.82236,3.5384 153.27517,3.5433 153.73048,3.5557 C154.52249,3.5771 155.44897,3.62 156.31257,3.7748 C157.06327,3.91 157.69286,4.1156 158.29707,4.4232 C158.89357,4.7263 159.44008,5.1235 159.91726,5.6 C160.39626,6.0797 160.79397,6.6271 161.10107,7.2302 C161.40696,7.8297 161.61126,8.4563 161.74566,9.2125 C161.90006,10.0667 161.94276,10.9957 161.96447,11.7926 C161.97666,12.2424 161.98266,12.6922 161.98487,13.1527 C161.98916,13.7096 161.98907,14.2662 161.98907,14.8242 L161.98907,91.142 C161.98907,91.7 161.98916,92.2556 161.98477,92.8244 C161.98266,93.2741 161.97667,93.7239 161.96437,94.1745 C161.94276,94.9702 161.90007,95.8987 161.74377,96.763 C161.61126,97.5088 161.40707,98.1355 161.09948,98.738 C160.79327,99.3396 160.39617,99.8864 159.91926,100.3631 C159.43937,100.8431 158.89466,101.2391 158.29107,101.545 C157.69137,101.8511 157.06286,102.05651 156.31956,102.1903 C155.43847,102.3473 154.47317,102.3905 153.74617,102.4102 C153.28877,102.4205 152.83357,102.42669 152.36728,102.4289 C151.81157,102.4332 151.25388,102.4331 150.69808,102.4331 L14.82318,102.4331 C14.81578,102.4331 14.80858,102.4331 14.80108,102.4331 C14.25168,102.4331 13.70118,102.4331 13.14178,102.4288 C12.68568,102.42669 12.23058,102.4206 11.79058,102.4106 C11.04698,102.3905 10.08108,102.3474 9.20718,102.1913 C8.45749,102.0565 7.82898,101.8511 7.22138,101.541 C6.62349,101.2378 6.07918,100.8422 5.59908,100.3613 C5.12268,99.8857 4.72678,99.3406 4.42068,98.7381 C4.11428,98.1362 3.90928,97.5076 3.77449,96.7529 C3.61868,95.8903 3.57588,94.9655 3.55449,94.1752 C3.54228,93.7227 3.53718,93.2703 3.53428,92.8205 L3.53208,91.4926 L3.53218,91.142 L3.53218,14.8242 L3.53208,14.4736 L3.53418,13.1485 C3.53718,12.696 3.54228,12.2436 3.55449,11.7915 C3.57588,11.0004 3.61868,10.0752 3.77578,9.2054 C3.90938,8.4575 4.11428,7.8289 4.42228,7.224 C4.72598,6.6261 5.12258,6.0803 5.60149,5.6015 C6.07849,5.1243 6.62458,4.7276 7.22628,4.4216 C7.82738,4.1155 8.45708,3.91 9.20678,3.7751 C10.07058,3.6199 10.99768,3.5771 11.79168,3.5556 C12.24428,3.5433 12.69688,3.5384 13.14608,3.5353 L14.82318,3.532 L150.69807,3.532" id="XMLID_3_" fill="#FFFFFF"></path>
            <g id="Group" transform="translate(22.000000, 29.000000)" fill="#000000">
                <g id="Path">
                    <path d="M23.1862,6.64053 C24.60344,4.86787 25.56517,2.48771 25.31152,0.05547 C23.23688,0.15863 20.70518,1.42418 19.23945,3.19823 C17.92338,4.71743 16.75855,7.19725 17.06222,9.52753 C19.39111,9.72954 21.71785,8.36345 23.1862,6.64053"></path>
                    <path d="M25.28506,9.98252 C21.90295,9.78106 19.02733,11.90203 17.4122,11.90203 C15.79618,11.90203 13.32289,10.08404 10.64782,10.13304 C7.16605,10.18418 3.93537,12.1528 2.16852,15.28383 C-1.46559,21.54743 1.20948,30.83854 4.74346,35.93989 C6.45964,38.46369 8.52793,41.24258 11.25322,41.14276 C13.82816,41.04172 14.83743,39.47544 17.96738,39.47544 C21.09503,39.47544 22.00417,41.14276 24.7299,41.09225 C27.55655,41.04171 29.32371,38.56719 31.03987,36.04093 C33.00865,33.16393 33.8146,30.38595 33.86529,30.23345 C33.81459,30.18294 28.41471,28.11141 28.36464,21.89987 C28.31366,16.69886 32.60415,14.22497 32.80608,14.07155 C30.3832,10.4881 26.5975,10.08404 25.28506,9.98252"></path>
                </g>
                <g transform="translate(40.000000, 2.000000)">
                    <path d="M14.73385,0.94381 C22.08481,0.94381 27.20355,6.01089 27.20355,13.38818 C27.20355,20.79181 21.97948,25.88522 14.54952,25.88522 L6.4106,25.88522 L6.4106,38.8284 L0.53023,38.8284 L0.53023,0.9438 L14.73385,0.9438 L14.73385,0.94381 Z M6.41059,20.9493 L13.15791,20.9493 C18.27766,20.9493 21.19151,18.19294 21.19151,13.41451 C21.19151,8.63659 18.27766,5.90606 13.18424,5.90606 L6.41059,5.90606 L6.41059,20.9493 L6.41059,20.9493 Z" id="Shape"></path>
                    <path d="M28.73997,30.97864 C28.73997,26.14754 32.44179,23.18103 39.0058,22.81338 L46.56641,22.36724 L46.56641,20.24085 C46.56641,17.169 44.49218,15.33126 41.02736,15.33126 C37.74485,15.33126 35.69695,16.90618 35.19865,19.37439 L29.84291,19.37439 C30.1579,14.3858 34.41068,10.71032 41.23701,10.71032 C47.93167,10.71032 52.21078,14.25464 52.21078,19.7942 L52.21078,38.82841 L46.77606,38.82841 L46.77606,34.28647 L46.64541,34.28647 C45.04416,37.35832 41.552,39.30088 37.92918,39.30088 C32.52078,39.30088 28.73997,35.94038 28.73997,30.97864 Z M46.56641,28.4846 L46.56641,26.30555 L39.76641,26.72536 C36.37958,26.96185 34.46335,28.45827 34.46335,30.82115 C34.46335,33.23619 36.45858,34.81161 39.5041,34.81161 C43.46823,34.81161 46.56641,32.08108 46.56641,28.4846 Z" id="Shape"></path>
                    <path d="M57.34167,48.9889 L57.34167,44.3943 C57.76097,44.49913 58.70592,44.49913 59.1789,44.49913 C61.8041,44.49913 63.22203,43.39668 64.08798,40.56133 C64.08798,40.50866 64.58729,38.88108 64.58729,38.85475 L54.61113,11.20913 L60.75381,11.20913 L67.73813,33.68284 L67.84245,33.68284 L74.82678,11.20913 L80.81248,11.20913 L70.46765,40.27217 C68.10579,46.96734 65.37525,49.12006 59.65188,49.12006 C59.17891,49.12006 57.76098,49.06739 57.34167,48.9889 Z" id="Path"></path>
                </g>
            </g>
        </g>
    </g>
</svg>